<?xml version="1.0" encoding="iso-8859-1"?>
<!-- Generator: Adobe Illustrator 16.0.0, SVG Export Plug-In . SVG Version: 6.00 Build 0)  -->
<!DOCTYPE svg PUBLIC "-//W3C//DTD SVG 1.1//EN" "http://www.w3.org/Graphics/SVG/1.1/DTD/svg11.dtd">
<svg version="1.1" id="Capa_1" xmlns="http://www.w3.org/2000/svg" xmlns:xlink="http://www.w3.org/1999/xlink" x="0px" y="0px"
	 width="456.726px" height="456.726px" viewBox="0 0 456.726 456.726" style="enable-background:new 0 0 456.726 456.726;"
	 xml:space="preserve">
<g>
	<g id="Layer_8_72_">
		<path d="M408.204,54.922h-23.111V33.845C385.093,15.174,369.913,0,351.251,0c-18.658,0-33.838,15.174-33.838,33.845v21.078
			h-48.297V33.845C269.116,15.174,253.938,0,235.278,0c-18.66,0-33.844,15.174-33.844,33.845v21.078h-53.001V33.845
			c0-18.671-15.18-33.845-33.84-33.845C95.938,0,80.758,15.174,80.758,33.845v21.078H48.656c-9.929,0-17.976,5.062-17.976,11.302
			v51.164c-0.024,0.449-0.137,0.875-0.137,1.335v308.552c0,16.23,13.209,29.45,29.453,29.45h336.592
			c16.239,0,29.448-13.209,29.448-29.45v-260.1c0.046-0.293,0.145-0.561,0.145-0.854V66.219
			C426.186,59.984,418.127,54.922,408.204,54.922z M334.241,33.845c0-9.382,7.615-17.013,17.005-17.013
			c9.381,0,17.009,7.631,17.009,17.013v21.078h-34.014V33.845z M218.263,33.845c0-9.382,7.626-17.013,17.011-17.013
			c9.38,0,17.006,7.631,17.006,17.013v21.078h-34.017V33.845z M97.579,33.845c0-9.382,7.629-17.013,17.01-17.013
			S131.6,24.463,131.6,33.845v21.078H97.579V33.845z M400.79,427.275c0,2.322-1.881,4.203-4.201,4.203H59.992
			c-2.32,0-4.209-1.881-4.209-4.203V177.629H400.79V427.275z M165.4,282.673c-2.848-2.923-4.271-6.326-4.271-10.168
			c0-4.465,1.401-7.747,4.203-9.849c2.801-2.102,7.749-4.815,14.837-8.143c10.597-5.001,19.062-10.244,25.413-15.759
			c6.346-5.517,11.972-11.689,16.875-18.523c4.903-6.829,8.099-11.031,9.591-12.607c1.487-1.573,4.289-2.364,8.4-2.364
			c4.641,0,8.362,1.795,11.164,5.385c2.801,3.593,4.202,8.534,4.202,14.835v150.376c0,17.598-5.997,26.396-17.991,26.396
			c-5.342,0-9.632-1.794-12.87-5.384c-3.24-3.595-4.859-8.892-4.859-15.896V261.475c-22.239,17.072-37.212,25.598-44.917,25.598
			C171.507,287.082,168.242,285.616,165.4,282.673z"/>
	</g>
</g>
<g>
</g>
<g>
</g>
<g>
</g>
<g>
</g>
<g>
</g>
<g>
</g>
<g>
</g>
<g>
</g>
<g>
</g>
<g>
</g>
<g>
</g>
<g>
</g>
<g>
</g>
<g>
</g>
<g>
</g>
</svg>
